HIERARCHY
ROOT Hips
{
  OFFSET 3.13124 94.3669 -3.18751
  CHANNELS  6 Xposition Yposition Zposition Zrotation Xrotation Yrotation
  JOINT LeftUpLeg
  {
    OFFSET 8.64259 1.95398 -2.38835
    CHANNELS 3 Zrotation Xrotation Yrotation
    JOINT LeftLeg
    {
      OFFSET 43.7702 0 0
      CHANNELS 3 Zrotation Xrotation Yrotation
      JOINT LeftFoot
      {
        OFFSET 40.6238 0 0
        CHANNELS 3 Zrotation Xrotation Yrotation
        JOINT LeftToeBase
        {
          OFFSET 12.7242 0 0
          CHANNELS 3 Zrotation Xrotation Yrotation
          End Site
          {
            OFFSET 0 0 0
          }
        }
      }
    }
  }
  JOINT RightUpLeg
  {
    OFFSET -8.2249 1.95398 -2.59336
    CHANNELS 3 Zrotation Xrotation Yrotation
    JOINT RightLeg
    {
      OFFSET 43.5653 0 0
      CHANNELS 3 Zrotation Xrotation Yrotation
      JOINT RightFoot
      {
        OFFSET 40.6238 0 0
        CHANNELS 3 Zrotation Xrotation Yrotation
        JOINT RightToeBase
        {
          OFFSET 12.7242 0 0
          CHANNELS 3 Zrotation Xrotation Yrotation
          End Site
          {
            OFFSET 0 0 0
          }
        }
      }
    }
  }
  JOINT Spine
  {
    OFFSET 0.165834 0.87714 6.61349
    CHANNELS 3 Zrotation Xrotation Yrotation
    JOINT Spine1
    {
      OFFSET 7.38962 1.71661e-005 0
      CHANNELS 3 Zrotation Xrotation Yrotation
      JOINT Spine2
      {
        OFFSET 11.9445 1.14441e-005 0
        CHANNELS 3 Zrotation Xrotation Yrotation
        JOINT Spine3
        {
          OFFSET 14.7254 4.19617e-005 0
          CHANNELS 3 Zrotation Xrotation Yrotation
          JOINT Spine4
          {
            OFFSET 10.9679 0 0
            CHANNELS 3 Zrotation Xrotation Yrotation
            JOINT RightShoulder
            {
              OFFSET 2.46616 -1.6653 3.69651
              CHANNELS 3 Zrotation Xrotation Yrotation
              JOINT RightArm
              {
                OFFSET 13.0012 0 0
                CHANNELS 3 Zrotation Xrotation Yrotation
                JOINT RightForeArm
                {
                  OFFSET 28.7848 1.52588e-005 0
                  CHANNELS 3 Zrotation Xrotation Yrotation
                  JOINT RightHand
                  {
                    OFFSET 26.5688 1.52588e-005 0
                    CHANNELS 3 Zrotation Xrotation Yrotation
                    End Site
                    {
                      OFFSET 0 0 0
                    }
                  }
                }
              }
            }
            JOINT LeftShoulder
            {
              OFFSET 2.38034 -1.29275 -3.75231
              CHANNELS 3 Zrotation Xrotation Yrotation
              JOINT LeftArm
              {
                OFFSET 16.3182 6.10352e-005 0
                CHANNELS 3 Zrotation Xrotation Yrotation
                JOINT LeftForeArm
                {
                  OFFSET 27.0901 0 0
                  CHANNELS 3 Zrotation Xrotation Yrotation
                  JOINT LeftHand
                  {
                    OFFSET 24.5451 1.52588e-005 0
                    CHANNELS 3 Zrotation Xrotation Yrotation
                    End Site
                    {
                      OFFSET 0 0 0
                    }
                  }
                }
              }
            }
            JOINT Neck
            {
              OFFSET 5.0226 -0.0266342 0
              CHANNELS 3 Zrotation Xrotation Yrotation
              JOINT Head
              {
                OFFSET 6.69363 2.86102e-005 0
                CHANNELS 3 Zrotation Xrotation Yrotation
                End Site
                {
                  OFFSET 0 0 0
                }
              }
            }
          }
        }
      }
    }
  }
}
MOTION
Frames:	10
Frame Time:	0.0333333
-66.8399 85.0973 -116.745 -69.8771 -48.3317 -82.7608 -178.464 31.7311 104.598 -28.17 -11.5998 10.7372 42.8203 -4.44281 -4.54847 28.7808 6.06536e-006 1.02375e-005 -171.089 52.3428 65.3504 -47.6435 24.8612 1.2002 71.4788 24.6514 11.8827 28.7808 1.50019e-005 2.9327e-005 -0.835618 14.3812 -92.2469 -1.96208 -2.03469 -4.96422 -13.6406 -2.25094 -4.87017 -36.101 -0.451061 -5.34512 -16.0884 -0.451081 -5.34509 95.7594 -9.61886 -101.528 27.8706 25.6218 -43.8254 -3.71203 -0.284124 -119.832 -5.37983 -0.320007 -0.0162421 -84.8493 4.90988 67.6082 15.3765 7.39773 -67.9068 120.597 25.6372 -107.135 24.9607 17.384 60.2053 42.0809 -6.8559 -41.6379 -15.7843 12.2697 27.043 
-65.1894 84.4069 -117.155 -65.9103 -50.7612 -78.8281 -179.09 35.6023 105.399 -28.3011 -11.5253 10.3268 44.3722 -7.69555 -7.04826 28.7808 6.06536e-006 1.02375e-005 -169.266 54.1729 62.4917 -48.0314 27.267 1.37484 69.9274 25.8879 12.9703 28.7808 1.50019e-005 2.9327e-005 -0.758473 14.5354 -92.1199 -2.26283 -1.67388 -4.98501 -13.942 -1.89139 -4.90679 -36.4007 -0.100587 -5.2569 -16.388 -0.100583 -5.25692 96.3247 -8.63094 -100.282 28.7613 28.5709 -47.4089 -3.66928 -0.299931 -111.436 -5.37983 -0.320007 -0.0162421 -84.2991 7.91399 66.6748 17.1508 1.51547 -65.6839 128.695 23.9129 -107.418 23.9643 16.8791 60.6561 40.4807 -5.87234 -40.5358 -13.799 12.4931 25.9006 
-63.4412 83.6905 -117.599 -61.2294 -53.261 -74.1228 179.821 40.4964 105.998 -30.2009 -9.7493 9.81864 45.724 -10.0522 -8.73439 28.7808 6.06536e-006 1.02375e-005 -167.065 55.8638 59.0579 -48.5316 30.1758 1.60573 68.1209 26.4032 13.8003 28.7808 1.50019e-005 2.9327e-005 -0.569863 14.6501 -92.0752 -2.47804 -1.16408 -5.03002 -14.158 -1.38406 -4.97414 -36.6151 0.39927 -5.1472 -16.6024 0.399298 -5.14721 97.1489 -8.7407 -97.7244 28.849 29.8804 -50.4351 -3.62594 -0.308371 -103.288 -5.37983 -0.320007 -0.0162421 -83.7096 11.3854 64.9653 17.2339 -4.24815 -61.9581 135.817 21.7105 -104.848 25.3658 16.8553 57.8375 40.9002 -6.43525 -39.9363 -13.5873 11.8379 25.8882 
-61.8782 83.1889 -118.125 -55.1866 -55.4282 -67.2625 178.586 46.5921 107.506 -32.4517 -8.23155 8.5535 45.1992 -10.3617 -9.08522 28.7808 6.06536e-006 1.02375e-005 -165.731 57.0839 56.9331 -48.1435 33.9438 1.95187 65.9268 27.4117 15.059 28.7808 1.50019e-005 2.9327e-005 -0.26788 14.7062 -92.1751 -2.57295 -0.542492 -5.19413 -14.254 -0.770246 -5.16536 -36.7079 1.0415 -5.11767 -16.6952 1.04151 -5.11769 97.8012 -9.34811 -95.5279 28.7753 30.5653 -53.1746 -3.59564 -0.308538 -97.7123 -5.37983 -0.320007 -0.0162421 -83.1047 14.0884 63.9423 16.8118 -11.0505 -60.1928 141.077 21.6755 -103.937 29.8173 18.5669 54.9358 42.0884 -7.85666 -39.4466 -14.6798 10.3171 27.0419 
-60.3094 82.7914 -118.5 -48.829 -57.5161 -60.1593 177.45 52.1469 108.536 -34.1254 -8.63549 6.66091 43.6694 -10.0934 -9.15709 28.7808 6.06536e-006 1.02375e-005 -164.56 57.5416 54.5274 -47.6987 37.9773 2.35706 63.6592 28.3226 16.354 28.7808 1.50019e-005 2.9327e-005 0.0428706 14.7344 -92.2157 -2.60787 0.147779 -5.26583 -14.2895 -0.0837957 -5.26723 -36.7459 1.72157 -4.97942 -16.7333 1.72158 -4.97939 98.185 -10.989 -93.8798 28.7219 31.0238 -54.8745 -3.57801 -0.335785 -94.2609 -5.37983 -0.320007 -0.0162421 -82.6522 16.5432 61.9925 13.6341 -17.2107 -59.2857 146.027 21.4082 -102.328 37.6229 20.9682 49.7338 42.8935 -9.69394 -39.9555 -16.0388 8.58422 29.2654 
-58.6565 82.4147 -118.629 -42.2767 -59.1024 -53.3972 176.986 56.7586 108.382 -35.4301 -11.4194 4.02349 43.6624 -8.25852 -7.6445 28.7808 6.06536e-006 1.02375e-005 -163.067 57.6509 51.2293 -47.3296 40.9859 2.6818 61.0245 29.1738 17.8167 28.7808 1.50019e-005 2.9327e-005 0.18581 14.7373 -92.0843 -2.59415 0.670965 -5.13589 -14.2752 0.444575 -5.16036 -36.7408 2.18182 -4.69858 -16.7282 2.18184 -4.69858 98.141 -12.3055 -93.6536 28.7294 31.6951 -56.3207 -3.55838 -0.247069 -90.8994 -5.37983 -0.320007 -0.0162421 -82.6748 17.0315 60.7564 8.57609 -22.1891 -61.6664 150.695 20.8756 -101.657 47.6455 23.5291 43.9003 42.3787 -9.99848 -39.1834 -15.6738 7.7019 29.5688 
-57.0133 82.08 -118.507 -36.9495 -60.6414 -47.4662 176.964 60.0341 107.756 -36.7979 -15.3637 1.45236 44.6769 -5.61387 -5.33214 28.7808 6.06536e-006 1.02375e-005 -162.832 56.6816 49.2566 -46.7721 43.8326 3.02039 58.5469 30.1011 19.346 28.7808 1.50019e-005 2.9327e-005 0.269725 14.7932 -91.8442 -2.68461 1.19645 -4.88819 -14.3644 0.980417 -4.93595 -36.8437 2.60895 -4.30447 -16.8311 2.60895 -4.30449 98.1637 -13.8345 -93.1955 28.0867 30.2372 -57.9266 -3.54312 -0.363785 -88.1434 -5.37983 -0.320007 -0.0162421 -83.2235 16.3408 58.7317 0.892517 -24.8474 -66.4617 151.457 21.2105 -101.345 56.1493 24.611 38.2966 41.1532 -10.5594 -40.1305 -15.5663 6.94819 31.9191 
-55.4915 81.9233 -118.109 -33.1327 -62.6553 -42.4442 176.759 61.8134 107.191 -38.3038 -16.1781 0.613535 44.3689 -6.2357 -5.88945 28.7808 6.06536e-006 1.02375e-005 -164.436 54.2325 49.2884 -45.7518 45.9009 3.29132 56.2303 31.1439 20.9698 28.7808 1.50019e-005 2.9327e-005 0.380591 14.9214 -91.6254 -2.92059 1.70944 -4.66111 -14.599 1.50288 -4.73161 -37.0922 3.03028 -3.93366 -17.0795 3.03028 -3.93365 97.3908 -15.4398 -94.8666 27.4601 28.9939 -59.7103 -3.52451 -0.294389 -84.3948 -5.37983 -0.320007 -0.0162421 -85.1656 12.3648 56.0105 -5.44774 -26.3429 -70.8947 155.438 21.3592 -103.454 50.4853 22.9252 40.1979 38.9655 -10.5073 -40.2564 -14.2353 6.43959 33.0507 
-53.9989 81.8415 -117.361 -29.6945 -64.7812 -38.0254 177.126 62.203 105.552 -39.1635 -17.0287 -0.160655 47.2103 -3.39606 -3.30625 28.7808 6.06536e-006 1.02375e-005 -166.518 51.0453 49.4312 -44.4141 46.4401 3.38448 53.7359 32.3931 22.8919 28.7808 1.50019e-005 2.9327e-005 0.654522 15.0414 -91.4967 -3.1502 2.13237 -4.26948 -14.8267 1.94259 -4.35899 -37.3364 3.31626 -3.4326 -17.3237 3.31626 -3.4326 96.6073 -15.4798 -96.9187 27.7564 29.5584 -54.1419 -3.53709 -0.26105 -86.5961 -5.37983 -0.320007 -0.0162421 -87.8156 7.18329 53.0527 -10.8572 -26.1935 -75.5279 167.634 19.2279 -109.599 38.7092 21.0656 48.5119 35.754 -10.2024 -41.0618 -12.0678 6.37067 34.4357 
-52.6533 81.9725 -116.477 -26.384 -67.0793 -33.8808 176.969 62.5851 104.135 -41.0542 -14.4232 0.53019 46.4188 -4.42456 -4.2064 28.7808 6.06536e-006 1.02375e-005 -169.741 46.9074 50.4576 -41.5789 46.2012 3.37655 53.0114 33.8156 24.2378 28.7808 1.50019e-005 2.9327e-005 0.806406 15.1752 -91.1622 -3.40048 2.68049 -3.7725 -15.0745 2.512 -3.88666 -37.6049 3.68992 -2.79315 -17.5922 3.68993 -2.79317 95.8902 -15.4273 -98.8202 28.4973 30.5899 -41.8991 -3.58648 -0.353584 -95.6073 -5.37983 -0.320007 -0.0162421 -90.4081 3.0422 49.6628 -19.4301 -24.1903 -80.4556 -170.659 12.7403 -114.108 34.9398 16.4929 42.3645 33.2923 -10.6809 -42.472 -10.4028 6.01666 35.5745 
